<?xml version="1.0" encoding="utf-8"?>
<!-- Generator: Adobe Illustrator 23.1.1, SVG Export Plug-In . SVG Version: 6.00 Build 0)  -->
<svg version="1.1" id="圖層_1" xmlns="http://www.w3.org/2000/svg" xmlns:xlink="http://www.w3.org/1999/xlink" x="0px" y="0px"
	 viewBox="0 0 1024 1024" style="enable-background:new 0 0 1024 1024;" xml:space="preserve">
<style type="text/css">
	.st0{fill:#FFFFFF;}
</style>
<path class="st0" d="M920.5,515.8c-22.1,0-40,17.9-40,40c0,83.2-42.7,159.6-117.1,209.7l-21.9,14.7l10.8,56.4l-83-28.9l-11.1,2.4
	c-22.7,5-46.2,7.5-69.8,7.5c-22.1,0-40,17.9-40,40s17.9,40,40,40c25.5,0,50.9-2.4,75.7-7.1l192.8,67.1l-27.1-141.7
	c36.3-28.5,66.7-63.5,88.8-102.4c27.4-48.4,41.9-103,41.9-157.9C960.5,533.7,942.6,515.8,920.5,515.8L920.5,515.8z"/>
<path class="st0" d="M808.4,562.7c20.6-44.3,31.1-91.4,31.1-140s-10.5-95.7-31.1-140c-19.8-42.5-48-80.6-83.9-113.3
	c-73.1-66.5-170.1-103.1-273-103.1s-199.9,36.6-273,103.1c-35.9,32.7-64.2,70.8-83.9,113.3C74,327,63.5,374.1,63.5,422.7
	c0,57.2,15.1,114.1,43.7,164.5c23.1,40.8,55.2,77.6,93.5,107.4l-28,146.4l199.4-69.4c26,5,52.7,7.5,79.4,7.5
	c102.9,0,199.9-36.6,273-103.1C760.4,643.3,788.6,605.2,808.4,562.7z M451.5,699c-24.9,0-49.6-2.7-73.6-7.9l-11.1-2.4l-89.6,31.2
	l11.7-61.1L267,643.9c-78.5-52.8-123.5-133.5-123.5-221.3c0-152.4,138.2-276.4,308-276.4s308,124,308,276.4
	C759.5,575.1,621.3,699,451.5,699z"/>
<path class="st0" d="M232.9,443.6c16.1,16.1,42.2,16.1,58.3,0c16.1-16.1,16.1-42.2,0-58.3c0,0,0,0,0,0c-16.1-16.1-42.2-16.1-58.3,0
	C216.8,401.4,216.8,427.5,232.9,443.6C232.9,443.6,232.9,443.6,232.9,443.6z"/>
<path class="st0" d="M416,443.6c16.1,16.1,42.2,16.1,58.3,0c16.1-16.1,16.1-42.2,0-58.3c-16.1-16.1-42.2-16.1-58.3,0
	C399.9,401.4,399.9,427.5,416,443.6C416,443.6,416,443.6,416,443.6L416,443.6z"/>
<path class="st0" d="M599.1,443.6c16.1,16.1,42.2,16.1,58.3,0c16.1-16.1,16.1-42.2,0-58.3c0,0,0,0,0,0c-16.1-16.1-42.2-16.1-58.3,0
	C583,401.4,583,427.5,599.1,443.6C599.1,443.6,599.1,443.6,599.1,443.6z"/>
</svg>
